 http://i1306.photobucket.com/albums/s570/zyx55e/44_zpsc46e809d.gif 
http://desibbrg.org/images/73128972665462071960.png 
http://desibbrg.org/images/66724795375242374277.png 
http://desibbrg.org/images/32414009811281436094.png 
http://desibbrg.org/images/26446174022125771117.png 
http://desibbrg.org/images/47868383469256692441.png
 
http://i1306.photobucket.com/albums/s570/zyx55e/oie_11162011MOJeDGQI_zpsc25b2b81.gif

Cast n Crew - 
Directed by Nitin Vaidya 
Video Director by Prakash Bhalekar.

Artist :- Mohan Joshi, Surekha Kudchi, Pradeep Patwardhan, Sanjay Sugavkar, Baban Joshi and Sunil Jadhav.

Writer :- Prof. Madhukar Toradmal

Media Info - 
General
Complete name                  : Kale Bet Laal Batti - Drama x264 MP3 [TMB].avi
Format                         : AVI
Format/Info                    : Audio Video Interleave
File size                      : 493 MiB
Duration                       : 1h 28mn
Overall bit rate               : 775 Kbps
Writing application            : Lavf54.63.104

Video
Format                         : AVC
Format/Info                    : Advanced Video Codec
Format profile                 : High@L3.0
Format settings, CABAC         : Yes
Format settings, ReFrames      : 1 frame
Codec ID                       : H264
Duration                       : 1h 28mn
Bit rate                       : 508 Kbps
Width                          : 640 pixels
Height                         : 480 pixels
Display aspect ratio           : 4:3
Frame rate mode                : Variable
Frame rate                     : 25.000 fps
Color space                    : YUV
Chroma subsampling             : 4:2:0
Bit depth                      : 8 bits
Scan type                      : Progressive
Bits/(Pixel*Frame)             : 0.066
Stream size                    : 322 MiB (65%)
Writing library                : x264 core 129

Audio
Format                         : MPEG Audio
Format version                 : Version 1
Format profile                 : Layer 3
Mode                           : Joint stereo
Mode extension                 : MS Stereo
Codec ID                       : 55
Codec ID/Hint                  : MP3
Duration                       : 1h 28mn
Bit rate mode                  : Constant
Bit rate                       : 256 Kbps
Channel(s)                     : 2 channels
Sampling rate                  : 44.1 KHz
Compression mode               : Lossy
Stream size                    : 163 MiB (33%)
Alignment                      : Aligned on interleaves
Interleave, duration           : 26 ms (0.65 video frame)
Writing library                : LAME3.99.5

Ripper : Manojvb

Seeding 24x7... Extreme Seeding...


Enjoy!
